# xmcd CD database file
#
# Track frame offsets:
#	150
#	23065
#	44717
#	66786
#	97822
#	125128
#	149319
#	176209
#	189665
#	210312
#	228135
#	258650
#
# Disc length: 3703 seconds
#
# Revision: 0
# Processed by: cddbd v1.5.1PL0 Copyright (c) Steve Scherf et al.
# Submitted via: CDex 1.51
#
DISCID=ad0e750c
DTITLE=Latin Quarter - Light House
DYEAR=2004
DGENRE=House
TTITLE0=Berg
TTITLE1=Funky Chicken
TTITLE2=Top ZZ
TTITLE3=Boomorang
TTITLE4=I Like Funky XXX
TTITLE5=Gregory Harris feat.Traks Boys
TTITLE6=Booger
TTITLE7=Version
TTITLE8=レッツニスリケーション feat.イルリメタカツキ
TTITLE9=Sleepless Morning
TTITLE10=Seaside Bound
TTITLE11=Autumn Leap
EXTD=YEAR: 2004
EXTT0=
EXTT1=
EXTT2=
EXTT3=
EXTT4=
EXTT5=
EXTT6=
EXTT7=
EXTT8=
EXTT9=
EXTT10=
EXTT11=
PLAYORDER=
